<svg width="14" height="16" viewBox="0 0 14 16" fill="none" xmlns="http://www.w3.org/2000/svg">
<path fill-rule="evenodd" clip-rule="evenodd" d="M5.26074 2.53441C5.18283 2.61121 5.143 2.71053 5.143 2.81V3H8.858V2.81C8.858 2.71024 8.81794 2.61063 8.73958 2.53374C8.66147 2.45708 8.55016 2.41 8.43 2.41H5.571C5.45279 2.41 5.34054 2.45674 5.26074 2.53441ZM10.858 3V2.81C10.858 2.16776 10.5981 1.55538 10.1404 1.10627C9.68253 0.656927 9.06584 0.410004 8.43 0.410004H5.571C4.93354 0.410004 4.3181 0.658997 3.86194 1.10494L3.86058 1.10627C3.40294 1.55538 3.143 2.16776 3.143 2.81V3H1C0.447715 3 0 3.44772 0 4C0 4.55229 0.447715 5 1 5V13.6015C1.00045 13.9192 1.06433 14.2336 1.1879 14.5262C1.3111 14.818 1.49118 15.0824 1.71761 15.3039C2.17358 15.7513 2.78888 16.0001 3.428 16.0001H10.572C11.2095 16.0001 11.8249 15.7511 12.2811 15.3052L12.2824 15.3038C12.7401 14.8547 13 14.2423 13 13.6001V5C13.5523 5 14 4.55229 14 4C14 3.44772 13.5523 3 13 3H10.858ZM11 5H3V13.5992C3.00013 13.6504 3.01047 13.7011 3.0304 13.7483C3.05039 13.7956 3.07963 13.8385 3.11641 13.8744L3.11839 13.8763C3.19642 13.9529 3.30712 14.0001 3.428 14.0001H10.572C10.6902 14.0001 10.8024 13.9534 10.8822 13.8757C10.9602 13.7989 11 13.6996 11 13.6001V5Z" fill="#808080"/>
</svg>
